PathFileType	4	(X/Y/Z)	C:\Users\dbl\Desktop\LZH\BX\Trimmed_bx_n_0_1801.trc
DataRate	CameraRate	NumFrames	NumMarkers	Units	OrigDataRate	OrigDataStartFrame	OrigNumFrames
50.00	50.00	       6	43	mm	50.00	374	       997
Frame#	Time	Top.Head			R.Acromium			L.Acromium			Sternum			R.ASIS			L.ASIS			V.Sacral			R.Thigh.Upper			R.Thigh.Front			R.Thigh.Rear			R.Knee.Lat			R.Knee.Med			R.Shank.Upper			R.Shank.Front			R.Shank.Rear			R.Ankle.Lat			R.Midfoot.Lat			R.Toe.Lat			R.Toe.Tip			R.Toe.Med			R.Ankle.Med			R.Midfoot.Sup			R.Heel			L.Thigh.Upper			L.Thigh.Front			L.Thigh.Rear			L.Knee.Lat			L.Knee.Med			L.Shank.Upper			L.Shank.Front			L.Shank.Rear			L.Ankle.Lat			L.Midfoot.Lat			L.Toe.Lat			L.Toe.Tip			L.Toe.Med			L.Ankle.Med			L.Midfoot.Sup			L.Heel			origin1 front left			origin2 front right			origin 3 back right			origin 4 back leftt			
		X1	Y1	Z1	X2	Y2	Z2	X3	Y3	Z3	X4	Y4	Z4	X5	Y5	Z5	X6	Y6	Z6	X7	Y7	Z7	X8	Y8	Z8	X9	Y9	Z9	X10	Y10	Z10	X11	Y11	Z11	X12	Y12	Z12	X13	Y13	Z13	X14	Y14	Z14	X15	Y15	Z15	X16	Y16	Z16	X17	Y17	Z17	X18	Y18	Z18	X19	Y19	Z19	X20	Y20	Z20	X21	Y21	Z21	X22	Y22	Z22	X23	Y23	Z23	X24	Y24	Z24	X25	Y25	Z25	X26	Y26	Z26	X27	Y27	Z27	X28	Y28	Z28	X29	Y29	Z29	X30	Y30	Z30	X31	Y31	Z31	X32	Y32	Z32	X33	Y33	Z33	X34	Y34	Z34	X35	Y35	Z35	X36	Y36	Z36	X37	Y37	Z37	X38	Y38	Z38	X39	Y39	Z39	X40	Y40	Z40	X41	Y41	Z41	X42	Y42	Z42	X43	Y43	Z43	

374	7.460	-667.67828	248.35349	1826.25049	-615.99170	62.19021	1537.76880	-618.15918	420.51236	1530.85144	-504.35040	240.89716	1358.47949	-526.28412	115.89523	1034.65540	-497.33752	341.88800	1038.18616	-712.30316	245.25525	1053.96655	-609.87988	69.26081	835.22729	-520.02124	122.95013	812.84680	-617.76923	84.78600	726.06079	-659.33771	110.00241	606.23926	-632.31104	216.51834	563.34668	-691.20343	112.59881	541.02948	-610.97235	156.33339	524.20807	-701.90747	106.54938	489.83115	-697.80420	137.43503	213.78012	-625.98962	73.74084	163.95824	-579.30530	50.79892	160.72336	-502.94086	92.87132	160.66763	-542.95514	143.62181	164.50267	-646.99707	211.10315	218.75514	-604.93384	184.04874	170.39079	-729.66010	206.36539	170.31549	-590.90778	427.76447	857.07367	-510.53021	378.34534	814.17120	-620.92651	416.11362	744.93921	-643.58057	398.18228	609.86194	-623.86188	289.00934	568.47412	-661.21851	398.57458	561.67999	-599.56287	349.04102	536.27673	-715.81702	400.59674	499.44141	-680.28497	405.27142	216.90791	-589.05084	461.77170	163.78888	-551.35779	474.56702	159.10173	-489.46936	428.03455	167.39809	-525.78198	384.94073	176.20724	-640.71350	316.89117	206.97736	-592.83508	340.42883	168.82030	-731.07385	333.72577	162.99774	-443.74841	448.63757	146.72606	-450.44992	75.02855	143.26736	-806.34833	82.63938	140.90648	-800.01300	456.42984	144.64763	
375	7.480	-667.69464	248.25388	1826.22522	-616.06464	62.17055	1537.75171	-618.14679	420.45511	1530.94519	-504.53079	240.83389	1358.44263	-526.68335	115.88511	1034.62329	-497.55536	341.92575	1038.25928	-712.46838	245.33151	1053.97278	-610.04187	69.23634	835.21716	-520.17419	122.97413	812.94043	-617.93408	84.72218	726.06824	-659.46265	110.01549	606.21832	-632.38031	216.53963	563.38464	-691.26062	112.60941	541.10016	-611.12933	156.40730	524.17877	-702.05566	106.57672	489.77420	-697.86749	137.45015	213.71257	-625.98944	73.73539	163.96019	-579.32611	50.80670	160.71371	-502.92404	92.90627	160.68059	-543.02368	143.61232	164.43018	-646.98102	211.08078	218.77208	-604.92865	184.03516	170.40181	-729.64435	206.35245	170.28297	-591.05389	427.75266	856.98663	-510.65662	378.33191	814.20630	-621.00555	416.11923	744.94196	-643.63470	398.23615	609.84198	-623.98938	288.96561	568.48053	-661.32825	398.58148	561.61609	-599.62964	349.05283	536.24548	-715.97375	400.63919	499.49075	-680.28680	405.26154	216.89519	-589.06635	461.75616	163.79236	-551.34857	474.54471	159.12648	-489.45343	428.01035	167.44057	-525.81250	384.94357	176.23425	-640.71112	316.88754	206.98271	-592.81995	340.41855	168.83148	-731.07184	333.73810	163.00089	-443.75558	448.64459	146.74651	-450.43527	74.99491	143.25613	-806.35840	82.68614	140.89713	-799.98468	456.41675	144.63745	
376	7.500	-667.66071	248.16695	1826.23438	-616.11920	62.13410	1537.74292	-618.10193	420.40430	1531.03284	-504.71054	240.76538	1358.40515	-527.13287	115.87761	1034.61218	-497.77728	341.97903	1038.35095	-712.64282	245.35408	1053.99487	-610.22736	69.22635	835.20996	-520.35400	122.98281	813.01807	-618.06671	84.67184	726.04932	-659.61798	109.96375	606.25903	-632.41504	216.53032	563.44226	-691.30786	112.62196	541.12897	-611.29437	156.47784	524.15533	-702.15479	106.54781	489.74219	-697.84552	137.45418	213.70894	-625.98450	73.72957	163.95280	-579.33612	50.81075	160.70763	-502.90909	92.93661	160.68970	-543.06940	143.59286	164.37238	-646.96454	211.06024	218.78903	-604.91779	184.02795	170.40604	-729.64954	206.35716	170.21999	-591.21405	427.76520	856.91541	-510.79459	378.33505	814.24139	-621.13501	416.11295	744.92358	-643.70142	398.28601	609.78540	-624.13696	288.90768	568.53412	-661.45697	398.59119	561.55548	-599.67413	349.08423	536.26947	-716.11157	400.68924	499.50952	-680.26898	405.26920	216.88402	-589.08325	461.74286	163.79784	-551.33398	474.54767	159.12120	-489.45020	427.98560	167.47005	-525.84839	384.94327	176.26387	-640.71088	316.88702	206.98477	-592.81976	340.41824	168.83153	-731.10413	333.71597	162.98730	-443.77689	448.64142	146.73955	-450.42651	74.97464	143.26230	-806.34247	82.69304	140.85150	-799.96936	456.39847	144.62941	
377	7.520	-667.56592	248.08432	1826.28577	-616.16064	62.09299	1537.73230	-618.05133	420.35840	1531.10876	-504.86893	240.71118	1358.36438	-527.56378	115.87775	1034.68262	-498.01639	342.04050	1038.45593	-712.87872	245.32642	1054.04272	-610.46942	69.25700	835.20728	-520.59735	122.98858	813.08276	-618.19879	84.64359	726.01599	-659.79993	109.87558	606.33228	-632.47430	216.49661	563.52350	-691.37512	112.64143	541.11707	-611.43042	156.51892	524.15515	-702.21478	106.48313	489.73926	-697.77417	137.45103	213.75029	-625.97900	73.72604	163.94676	-579.33575	50.79057	160.72777	-502.91159	92.94351	160.68883	-543.08936	143.57539	164.34082	-646.96161	211.06047	218.78935	-604.91205	184.01834	170.39308	-729.68591	206.39166	170.15286	-591.40253	427.79889	856.88446	-510.94055	378.33755	814.28754	-621.28601	416.09152	744.88843	-643.76544	398.32516	609.71948	-624.28510	288.84598	568.64600	-661.63281	398.58252	561.55585	-599.68799	349.10632	536.35614	-716.21484	400.74176	499.49921	-680.24371	405.28888	216.87408	-589.09186	461.74710	163.80847	-551.32983	474.57806	159.08412	-489.46777	427.97076	167.47679	-525.87158	384.92676	176.29593	-640.71210	316.88861	206.98494	-592.83459	340.42780	168.82042	-731.13379	333.68793	162.96208	-443.80481	448.62280	146.73537	-450.43042	74.98027	143.28418	-806.33759	82.66071	140.80646	-799.96820	456.38364	144.62421	
378	7.540	-667.40088	248.00252	1826.36755	-616.19366	62.06477	1537.71545	-618.01605	420.30621	1531.17981	-505.01236	240.67944	1358.29614	-527.93604	115.88110	1034.83301	-498.28430	342.09436	1038.54578	-713.23352	245.29892	1054.12134	-610.77295	69.33267	835.19910	-520.92365	123.00885	813.13739	-618.37091	84.63873	726.00922	-659.98438	109.81425	606.37512	-632.59564	216.45100	563.61707	-691.46954	112.66185	541.08643	-611.52228	156.52600	524.19244	-702.28986	106.39702	489.76569	-697.69434	137.43936	213.80063	-625.97296	73.72440	163.95120	-579.32849	50.75488	160.77654	-502.93713	92.92224	160.67772	-543.09332	143.57170	164.33539	-646.96167	211.06506	218.78575	-604.91357	184.01140	170.37279	-729.73602	206.42885	170.10397	-591.62506	427.85110	856.87646	-511.09155	378.33139	814.34216	-621.42657	416.07407	744.85333	-643.82825	398.36380	609.67328	-624.45032	288.79367	568.79352	-661.85840	398.54700	561.61993	-599.69220	349.09021	536.48590	-716.29559	400.78497	499.47531	-680.22644	405.31531	216.87558	-589.09296	461.76764	163.82829	-551.34552	474.61465	159.04146	-489.49561	427.97229	167.46918	-525.87170	384.90085	176.31668	-640.71307	316.89001	206.98450	-592.86011	340.44449	168.80107	-731.14685	333.66788	162.93481	-443.81976	448.59393	146.76054	-450.44257	75.00111	143.29553	-806.35614	82.61540	140.80420	-799.96332	456.37750	144.63072	
379	7.560	-667.17303	247.91609	1826.44958	-616.21765	62.04858	1537.70227	-617.99316	420.24268	1531.25073	-505.16003	240.64494	1358.19641	-528.25220	115.88222	1034.97937	-498.58102	342.11935	1038.58862	-713.69434	245.32394	1054.20728	-611.11963	69.41039	835.21179	-521.30872	123.05362	813.18701	-618.60931	84.65943	726.06653	-660.14825	109.81359	606.35181	-632.76062	216.39946	563.70172	-691.57593	112.67394	541.06818	-611.60590	156.52666	524.25360	-702.43298	106.28127	489.83401	-697.60944	137.40048	213.84978	-625.96875	73.71894	163.96518	-579.31470	50.72969	160.82513	-502.97699	92.89011	160.66597	-543.08588	143.58089	164.34969	-646.95166	211.05113	218.79738	-604.92297	184.02136	170.36308	-729.77362	206.43732	170.07660	-591.86719	427.89529	856.85480	-511.26053	378.29681	814.38409	-621.56329	416.08575	744.83618	-643.90521	398.41364	609.65222	-624.64014	288.77136	568.93805	-662.10028	398.50330	561.69983	-599.73883	349.04132	536.59198	-716.37598	400.81244	499.45773	-680.22064	405.34930	216.89879	-589.09357	461.78101	163.85115	-551.37079	474.62939	159.02562	-489.51569	427.98944	167.45847	-525.85498	384.88379	176.31355	-640.71130	316.88763	206.98392	-592.88440	340.46106	168.78154	-731.14581	333.65869	162.91623	-443.81857	448.56296	146.80833	-450.45483	75.01181	143.28204	-806.38123	82.58923	140.85295	-799.94208	456.38022	144.64375	
